<svg width="861" height="239" viewBox="0 0 861 239" fill="none" xmlns="http://www.w3.org/2000/svg">
<path d="M57.4248 146.516C103.575 139.536 100.498 180.997 161.263 187.045C222.027 193.094 238.949 150.753 266.639 138.655C294.329 126.557 306.636 71.4303 352.786 75.1526C398.936 78.8749 422.011 116.172 460.47 120.825C498.928 125.478 506.62 156.336 542.771 179.135C578.922 201.935 611.996 204.727 657.377 200.074C702.758 195.421 715.065 148.377 736.601 146.516C758.138 144.654 777.367 167.088 795.827 172.206C814.287 177.325 819.672 200.074 858.899 200.074" stroke="#3D3C41" stroke-width="4" stroke-linecap="round" stroke-linejoin="round"/>
<path d="M3.7342 18.1647V16.8687C4.74753 16.6873 5.6222 16.2393 6.3582 15.5247C7.10486 14.81 7.56886 13.898 7.7502 12.7887C7.22753 13.4287 6.41153 13.7487 5.3022 13.7487C4.32086 13.7487 3.49953 13.4127 2.8382 12.7407C2.18753 12.0687 1.8622 11.2313 1.8622 10.2287C1.8622 9.17266 2.21953 8.30332 2.9342 7.62066C3.65953 6.92732 4.57153 6.58066 5.6702 6.58066C6.89686 6.58066 7.82486 6.98066 8.4542 7.78066C9.08353 8.58066 9.3982 9.62599 9.3982 10.9167C9.3982 12.8047 8.89153 14.426 7.8782 15.7807C6.87553 17.1247 5.4942 17.9193 3.7342 18.1647ZM5.6222 12.4527C6.31553 12.4527 6.87553 12.2447 7.3022 11.8287C7.73953 11.402 7.9582 10.8473 7.9582 10.1647C7.9582 9.51399 7.7342 8.98066 7.2862 8.56466C6.84886 8.13799 6.2942 7.92466 5.6222 7.92466C4.92886 7.92466 4.36353 8.13799 3.9262 8.56466C3.49953 8.98066 3.2862 9.51399 3.2862 10.1647C3.2862 10.858 3.4942 11.4127 3.9102 11.8287C4.33686 12.2447 4.90753 12.4527 5.6222 12.4527ZM11.4091 19.9887C11.6011 19.818 11.7931 19.5727 11.9851 19.2527C12.1771 18.9327 12.2837 18.5913 12.3051 18.2287C11.9851 18.2073 11.7184 18.1007 11.5051 17.9087C11.2917 17.706 11.1851 17.4553 11.1851 17.1567C11.1851 16.826 11.2864 16.554 11.4891 16.3407C11.7024 16.1273 11.9584 16.0207 12.2571 16.0207C12.5984 16.0207 12.8864 16.1433 13.1211 16.3887C13.3557 16.6233 13.4731 16.97 13.4731 17.4287C13.4731 18.0153 13.3237 18.554 13.0251 19.0447C12.7264 19.546 12.3424 19.9407 11.8731 20.2287L11.4091 19.9887ZM19.2108 18.1647C18.4962 18.1647 17.8722 17.9993 17.3388 17.6687C16.8055 17.3273 16.3948 16.874 16.1068 16.3087C15.8295 15.7327 15.6215 15.1193 15.4828 14.4687C15.3548 13.818 15.2908 13.1193 15.2908 12.3727C15.2908 11.69 15.3495 11.0393 15.4668 10.4207C15.5842 9.79132 15.7815 9.17799 16.0588 8.58066C16.3362 7.97266 16.7415 7.48732 17.2748 7.12466C17.8188 6.76199 18.4642 6.58066 19.2108 6.58066C19.9255 6.58066 20.5495 6.75132 21.0828 7.09266C21.6162 7.42332 22.0215 7.87666 22.2988 8.45266C22.5868 9.02866 22.7948 9.64199 22.9228 10.2927C23.0615 10.9433 23.1308 11.6367 23.1308 12.3727C23.1308 13.0553 23.0668 13.7113 22.9388 14.3407C22.8215 14.9593 22.6242 15.5727 22.3468 16.1807C22.0695 16.778 21.6588 17.258 21.1148 17.6207C20.5815 17.9833 19.9468 18.1647 19.2108 18.1647ZM19.2108 16.8527C19.6908 16.8527 20.1015 16.7193 20.4428 16.4527C20.7842 16.186 21.0348 15.818 21.1948 15.3487C21.3655 14.8793 21.4828 14.41 21.5468 13.9407C21.6215 13.4607 21.6588 12.938 21.6588 12.3727C21.6588 11.7753 21.6215 11.226 21.5468 10.7247C21.4722 10.2233 21.3442 9.75399 21.1628 9.31666C20.9922 8.86866 20.7415 8.51666 20.4108 8.26066C20.0802 8.00466 19.6802 7.87666 19.2108 7.87666C18.7202 7.87666 18.3042 8.01532 17.9628 8.29266C17.6215 8.55932 17.3655 8.92732 17.1948 9.39666C17.0242 9.85532 16.9015 10.33 16.8268 10.8207C16.7628 11.3007 16.7308 11.818 16.7308 12.3727C16.7308 12.97 16.7682 13.5193 16.8428 14.0207C16.9175 14.5113 17.0455 14.9807 17.2268 15.4287C17.4082 15.8767 17.6642 16.2287 17.9948 16.4847C18.3362 16.73 18.7415 16.8527 19.2108 16.8527ZM29.4296 18.1647C28.7149 18.1647 28.0909 17.9993 27.5576 17.6687C27.0242 17.3273 26.6136 16.874 26.3256 16.3087C26.0482 15.7327 25.8402 15.1193 25.7016 14.4687C25.5736 13.818 25.5096 13.1193 25.5096 12.3727C25.5096 11.69 25.5682 11.0393 25.6856 10.4207C25.8029 9.79132 26.0002 9.17799 26.2776 8.58066C26.5549 7.97266 26.9602 7.48732 27.4936 7.12466C28.0376 6.76199 28.6829 6.58066 29.4296 6.58066C30.1442 6.58066 30.7682 6.75132 31.3016 7.09266C31.8349 7.42332 32.2402 7.87666 32.5176 8.45266C32.8056 9.02866 33.0136 9.64199 33.1416 10.2927C33.2802 10.9433 33.3496 11.6367 33.3496 12.3727C33.3496 13.0553 33.2856 13.7113 33.1576 14.3407C33.0402 14.9593 32.8429 15.5727 32.5656 16.1807C32.2882 16.778 31.8776 17.258 31.3336 17.6207C30.8002 17.9833 30.1656 18.1647 29.4296 18.1647ZM29.4296 16.8527C29.9096 16.8527 30.3202 16.7193 30.6616 16.4527C31.0029 16.186 31.2536 15.818 31.4136 15.3487C31.5842 14.8793 31.7016 14.41 31.7656 13.9407C31.8402 13.4607 31.8776 12.938 31.8776 12.3727C31.8776 11.7753 31.8402 11.226 31.7656 10.7247C31.6909 10.2233 31.5629 9.75399 31.3816 9.31666C31.2109 8.86866 30.9602 8.51666 30.6296 8.26066C30.2989 8.00466 29.8989 7.87666 29.4296 7.87666C28.9389 7.87666 28.5229 8.01532 28.1816 8.29266C27.8402 8.55932 27.5842 8.92732 27.4136 9.39666C27.2429 9.85532 27.1202 10.33 27.0456 10.8207C26.9816 11.3007 26.9496 11.818 26.9496 12.3727C26.9496 12.97 26.9869 13.5193 27.0616 14.0207C27.1362 14.5113 27.2642 14.9807 27.4456 15.4287C27.6269 15.8767 27.8829 16.2287 28.2136 16.4847C28.5549 16.73 28.9602 16.8527 29.4296 16.8527ZM44.2939 18.1647C42.0753 18.1647 40.7366 16.9007 40.2779 14.3727H38.9659L39.4779 13.2047H40.1339C40.1233 13.0233 40.1179 12.7513 40.1179 12.3887C40.1179 12.1113 40.1233 11.898 40.1339 11.7487H38.9819L39.4939 10.5807H40.2779C40.5019 9.41799 40.9553 8.46332 41.6379 7.71666C42.3313 6.95932 43.2753 6.58066 44.4699 6.58066C45.4939 6.58066 46.4166 6.86332 47.2379 7.42866L46.6939 8.74066C46.0539 8.17532 45.3073 7.89266 44.4539 7.89266C43.0246 7.89266 42.1286 8.78866 41.7659 10.5807H45.9259L45.4459 11.7487H41.6059C41.5846 11.93 41.5739 12.186 41.5739 12.5167C41.5739 12.826 41.5846 13.0553 41.6059 13.2047H44.8539L44.3739 14.3727H41.7819C42.1766 16.0153 43.0086 16.8367 44.2779 16.8367C45.1633 16.8367 45.8779 16.4527 46.4219 15.6847L47.5579 16.4047C47.2379 16.9273 46.8006 17.354 46.2459 17.6847C45.6913 18.0047 45.0406 18.1647 44.2939 18.1647Z" fill="#EBEBF5" fill-opacity="0.3"/>
<path d="M3.7342 90.1647V88.8687C4.74753 88.6873 5.6222 88.2393 6.3582 87.5247C7.10486 86.81 7.56886 85.898 7.7502 84.7887C7.22753 85.4287 6.41153 85.7487 5.3022 85.7487C4.32086 85.7487 3.49953 85.4127 2.8382 84.7407C2.18753 84.0687 1.8622 83.2313 1.8622 82.2287C1.8622 81.1727 2.21953 80.3033 2.9342 79.6207C3.65953 78.9273 4.57153 78.5807 5.6702 78.5807C6.89686 78.5807 7.82486 78.9807 8.4542 79.7807C9.08353 80.5807 9.3982 81.626 9.3982 82.9167C9.3982 84.8047 8.89153 86.426 7.8782 87.7807C6.87553 89.1247 5.4942 89.9193 3.7342 90.1647ZM5.6222 84.4527C6.31553 84.4527 6.87553 84.2447 7.3022 83.8287C7.73953 83.402 7.9582 82.8473 7.9582 82.1647C7.9582 81.514 7.7342 80.9807 7.2862 80.5647C6.84886 80.138 6.2942 79.9247 5.6222 79.9247C4.92886 79.9247 4.36353 80.138 3.9262 80.5647C3.49953 80.9807 3.2862 81.514 3.2862 82.1647C3.2862 82.858 3.4942 83.4127 3.9102 83.8287C4.33686 84.2447 4.90753 84.4527 5.6222 84.4527ZM11.4091 91.9887C11.6011 91.818 11.7931 91.5727 11.9851 91.2527C12.1771 90.9327 12.2837 90.5913 12.3051 90.2287C11.9851 90.2073 11.7184 90.1007 11.5051 89.9087C11.2917 89.706 11.1851 89.4553 11.1851 89.1567C11.1851 88.826 11.2864 88.554 11.4891 88.3407C11.7024 88.1273 11.9584 88.0207 12.2571 88.0207C12.5984 88.0207 12.8864 88.1433 13.1211 88.3887C13.3557 88.6233 13.4731 88.97 13.4731 89.4287C13.4731 90.0153 13.3237 90.554 13.0251 91.0447C12.7264 91.546 12.3424 91.9407 11.8731 92.2287L11.4091 91.9887ZM19.2108 90.1647C18.4962 90.1647 17.8722 89.9993 17.3388 89.6687C16.8055 89.3273 16.3948 88.874 16.1068 88.3087C15.8295 87.7327 15.6215 87.1193 15.4828 86.4687C15.3548 85.818 15.2908 85.1193 15.2908 84.3727C15.2908 83.69 15.3495 83.0393 15.4668 82.4207C15.5842 81.7913 15.7815 81.178 16.0588 80.5807C16.3362 79.9727 16.7415 79.4873 17.2748 79.1247C17.8188 78.762 18.4642 78.5807 19.2108 78.5807C19.9255 78.5807 20.5495 78.7513 21.0828 79.0927C21.6162 79.4233 22.0215 79.8767 22.2988 80.4527C22.5868 81.0287 22.7948 81.642 22.9228 82.2927C23.0615 82.9433 23.1308 83.6367 23.1308 84.3727C23.1308 85.0553 23.0668 85.7113 22.9388 86.3407C22.8215 86.9593 22.6242 87.5727 22.3468 88.1807C22.0695 88.778 21.6588 89.258 21.1148 89.6207C20.5815 89.9833 19.9468 90.1647 19.2108 90.1647ZM19.2108 88.8527C19.6908 88.8527 20.1015 88.7193 20.4428 88.4527C20.7842 88.186 21.0348 87.818 21.1948 87.3487C21.3655 86.8793 21.4828 86.41 21.5468 85.9407C21.6215 85.4607 21.6588 84.938 21.6588 84.3727C21.6588 83.7753 21.6215 83.226 21.5468 82.7247C21.4722 82.2233 21.3442 81.754 21.1628 81.3167C20.9922 80.8687 20.7415 80.5167 20.4108 80.2607C20.0802 80.0047 19.6802 79.8767 19.2108 79.8767C18.7202 79.8767 18.3042 80.0153 17.9628 80.2927C17.6215 80.5593 17.3655 80.9273 17.1948 81.3967C17.0242 81.8553 16.9015 82.33 16.8268 82.8207C16.7628 83.3007 16.7308 83.818 16.7308 84.3727C16.7308 84.97 16.7682 85.5193 16.8428 86.0207C16.9175 86.5113 17.0455 86.9807 17.2268 87.4287C17.4082 87.8767 17.6642 88.2287 17.9948 88.4847C18.3362 88.73 18.7415 88.8527 19.2108 88.8527ZM29.4296 90.1647C28.7149 90.1647 28.0909 89.9993 27.5576 89.6687C27.0242 89.3273 26.6136 88.874 26.3256 88.3087C26.0482 87.7327 25.8402 87.1193 25.7016 86.4687C25.5736 85.818 25.5096 85.1193 25.5096 84.3727C25.5096 83.69 25.5682 83.0393 25.6856 82.4207C25.8029 81.7913 26.0002 81.178 26.2776 80.5807C26.5549 79.9727 26.9602 79.4873 27.4936 79.1247C28.0376 78.762 28.6829 78.5807 29.4296 78.5807C30.1442 78.5807 30.7682 78.7513 31.3016 79.0927C31.8349 79.4233 32.2402 79.8767 32.5176 80.4527C32.8056 81.0287 33.0136 81.642 33.1416 82.2927C33.2802 82.9433 33.3496 83.6367 33.3496 84.3727C33.3496 85.0553 33.2856 85.7113 33.1576 86.3407C33.0402 86.9593 32.8429 87.5727 32.5656 88.1807C32.2882 88.778 31.8776 89.258 31.3336 89.6207C30.8002 89.9833 30.1656 90.1647 29.4296 90.1647ZM29.4296 88.8527C29.9096 88.8527 30.3202 88.7193 30.6616 88.4527C31.0029 88.186 31.2536 87.818 31.4136 87.3487C31.5842 86.8793 31.7016 86.41 31.7656 85.9407C31.8402 85.4607 31.8776 84.938 31.8776 84.3727C31.8776 83.7753 31.8402 83.226 31.7656 82.7247C31.6909 82.2233 31.5629 81.754 31.3816 81.3167C31.2109 80.8687 30.9602 80.5167 30.6296 80.2607C30.2989 80.0047 29.8989 79.8767 29.4296 79.8767C28.9389 79.8767 28.5229 80.0153 28.1816 80.2927C27.8402 80.5593 27.5842 80.9273 27.4136 81.3967C27.2429 81.8553 27.1202 82.33 27.0456 82.8207C26.9816 83.3007 26.9496 83.818 26.9496 84.3727C26.9496 84.97 26.9869 85.5193 27.0616 86.0207C27.1362 86.5113 27.2642 86.9807 27.4456 87.4287C27.6269 87.8767 27.8829 88.2287 28.2136 88.4847C28.5549 88.73 28.9602 88.8527 29.4296 88.8527ZM44.2939 90.1647C42.0753 90.1647 40.7366 88.9007 40.2779 86.3727H38.9659L39.4779 85.2047H40.1339C40.1233 85.0233 40.1179 84.7513 40.1179 84.3887C40.1179 84.1113 40.1233 83.898 40.1339 83.7487H38.9819L39.4939 82.5807H40.2779C40.5019 81.418 40.9553 80.4633 41.6379 79.7167C42.3313 78.9593 43.2753 78.5807 44.4699 78.5807C45.4939 78.5807 46.4166 78.8633 47.2379 79.4287L46.6939 80.7407C46.0539 80.1753 45.3073 79.8927 44.4539 79.8927C43.0246 79.8927 42.1286 80.7887 41.7659 82.5807H45.9259L45.4459 83.7487H41.6059C41.5846 83.93 41.5739 84.186 41.5739 84.5167C41.5739 84.826 41.5846 85.0553 41.6059 85.2047H44.8539L44.3739 86.3727H41.7819C42.1766 88.0153 43.0086 88.8367 44.2779 88.8367C45.1633 88.8367 45.8779 88.4527 46.4219 87.6847L47.5579 88.4047C47.2379 88.9273 46.8006 89.354 46.2459 89.6847C45.6913 90.0047 45.0406 90.1647 44.2939 90.1647Z" fill="#EBEBF5" fill-opacity="0.3"/>
<path d="M3.7342 162.165V160.869C4.74753 160.687 5.6222 160.239 6.3582 159.525C7.10486 158.81 7.56886 157.898 7.7502 156.789C7.22753 157.429 6.41153 157.749 5.3022 157.749C4.32086 157.749 3.49953 157.413 2.8382 156.741C2.18753 156.069 1.8622 155.231 1.8622 154.229C1.8622 153.173 2.21953 152.303 2.9342 151.621C3.65953 150.927 4.57153 150.581 5.6702 150.581C6.89686 150.581 7.82486 150.981 8.4542 151.781C9.08353 152.581 9.3982 153.626 9.3982 154.917C9.3982 156.805 8.89153 158.426 7.8782 159.781C6.87553 161.125 5.4942 161.919 3.7342 162.165ZM5.6222 156.453C6.31553 156.453 6.87553 156.245 7.3022 155.829C7.73953 155.402 7.9582 154.847 7.9582 154.165C7.9582 153.514 7.7342 152.981 7.2862 152.565C6.84886 152.138 6.2942 151.925 5.6222 151.925C4.92886 151.925 4.36353 152.138 3.9262 152.565C3.49953 152.981 3.2862 153.514 3.2862 154.165C3.2862 154.858 3.4942 155.413 3.9102 155.829C4.33686 156.245 4.90753 156.453 5.6222 156.453ZM11.4091 163.989C11.6011 163.818 11.7931 163.573 11.9851 163.253C12.1771 162.933 12.2837 162.591 12.3051 162.229C11.9851 162.207 11.7184 162.101 11.5051 161.909C11.2917 161.706 11.1851 161.455 11.1851 161.157C11.1851 160.826 11.2864 160.554 11.4891 160.341C11.7024 160.127 11.9584 160.021 12.2571 160.021C12.5984 160.021 12.8864 160.143 13.1211 160.389C13.3557 160.623 13.4731 160.97 13.4731 161.429C13.4731 162.015 13.3237 162.554 13.0251 163.045C12.7264 163.546 12.3424 163.941 11.8731 164.229L11.4091 163.989ZM19.2108 162.165C18.4962 162.165 17.8722 161.999 17.3388 161.669C16.8055 161.327 16.3948 160.874 16.1068 160.309C15.8295 159.733 15.6215 159.119 15.4828 158.469C15.3548 157.818 15.2908 157.119 15.2908 156.373C15.2908 155.69 15.3495 155.039 15.4668 154.421C15.5842 153.791 15.7815 153.178 16.0588 152.581C16.3362 151.973 16.7415 151.487 17.2748 151.125C17.8188 150.762 18.4642 150.581 19.2108 150.581C19.9255 150.581 20.5495 150.751 21.0828 151.093C21.6162 151.423 22.0215 151.877 22.2988 152.453C22.5868 153.029 22.7948 153.642 22.9228 154.293C23.0615 154.943 23.1308 155.637 23.1308 156.373C23.1308 157.055 23.0668 157.711 22.9388 158.341C22.8215 158.959 22.6242 159.573 22.3468 160.181C22.0695 160.778 21.6588 161.258 21.1148 161.621C20.5815 161.983 19.9468 162.165 19.2108 162.165ZM19.2108 160.853C19.6908 160.853 20.1015 160.719 20.4428 160.453C20.7842 160.186 21.0348 159.818 21.1948 159.349C21.3655 158.879 21.4828 158.41 21.5468 157.941C21.6215 157.461 21.6588 156.938 21.6588 156.373C21.6588 155.775 21.6215 155.226 21.5468 154.725C21.4722 154.223 21.3442 153.754 21.1628 153.317C20.9922 152.869 20.7415 152.517 20.4108 152.261C20.0802 152.005 19.6802 151.877 19.2108 151.877C18.7202 151.877 18.3042 152.015 17.9628 152.293C17.6215 152.559 17.3655 152.927 17.1948 153.397C17.0242 153.855 16.9015 154.33 16.8268 154.821C16.7628 155.301 16.7308 155.818 16.7308 156.373C16.7308 156.97 16.7682 157.519 16.8428 158.021C16.9175 158.511 17.0455 158.981 17.2268 159.429C17.4082 159.877 17.6642 160.229 17.9948 160.485C18.3362 160.73 18.7415 160.853 19.2108 160.853ZM29.4296 162.165C28.7149 162.165 28.0909 161.999 27.5576 161.669C27.0242 161.327 26.6136 160.874 26.3256 160.309C26.0482 159.733 25.8402 159.119 25.7016 158.469C25.5736 157.818 25.5096 157.119 25.5096 156.373C25.5096 155.69 25.5682 155.039 25.6856 154.421C25.8029 153.791 26.0002 153.178 26.2776 152.581C26.5549 151.973 26.9602 151.487 27.4936 151.125C28.0376 150.762 28.6829 150.581 29.4296 150.581C30.1442 150.581 30.7682 150.751 31.3016 151.093C31.8349 151.423 32.2402 151.877 32.5176 152.453C32.8056 153.029 33.0136 153.642 33.1416 154.293C33.2802 154.943 33.3496 155.637 33.3496 156.373C33.3496 157.055 33.2856 157.711 33.1576 158.341C33.0402 158.959 32.8429 159.573 32.5656 160.181C32.2882 160.778 31.8776 161.258 31.3336 161.621C30.8002 161.983 30.1656 162.165 29.4296 162.165ZM29.4296 160.853C29.9096 160.853 30.3202 160.719 30.6616 160.453C31.0029 160.186 31.2536 159.818 31.4136 159.349C31.5842 158.879 31.7016 158.41 31.7656 157.941C31.8402 157.461 31.8776 156.938 31.8776 156.373C31.8776 155.775 31.8402 155.226 31.7656 154.725C31.6909 154.223 31.5629 153.754 31.3816 153.317C31.2109 152.869 30.9602 152.517 30.6296 152.261C30.2989 152.005 29.8989 151.877 29.4296 151.877C28.9389 151.877 28.5229 152.015 28.1816 152.293C27.8402 152.559 27.5842 152.927 27.4136 153.397C27.2429 153.855 27.1202 154.33 27.0456 154.821C26.9816 155.301 26.9496 155.818 26.9496 156.373C26.9496 156.97 26.9869 157.519 27.0616 158.021C27.1362 158.511 27.2642 158.981 27.4456 159.429C27.6269 159.877 27.8829 160.229 28.2136 160.485C28.5549 160.73 28.9602 160.853 29.4296 160.853ZM44.2939 162.165C42.0753 162.165 40.7366 160.901 40.2779 158.373H38.9659L39.4779 157.205H40.1339C40.1233 157.023 40.1179 156.751 40.1179 156.389C40.1179 156.111 40.1233 155.898 40.1339 155.749H38.9819L39.4939 154.581H40.2779C40.5019 153.418 40.9553 152.463 41.6379 151.717C42.3313 150.959 43.2753 150.581 44.4699 150.581C45.4939 150.581 46.4166 150.863 47.2379 151.429L46.6939 152.741C46.0539 152.175 45.3073 151.893 44.4539 151.893C43.0246 151.893 42.1286 152.789 41.7659 154.581H45.9259L45.4459 155.749H41.6059C41.5846 155.93 41.5739 156.186 41.5739 156.517C41.5739 156.826 41.5846 157.055 41.6059 157.205H44.8539L44.3739 158.373H41.7819C42.1766 160.015 43.0086 160.837 44.2779 160.837C45.1633 160.837 45.8779 160.453 46.4219 159.685L47.5579 160.405C47.2379 160.927 46.8006 161.354 46.2459 161.685C45.6913 162.005 45.0406 162.165 44.2939 162.165Z" fill="#EBEBF5" fill-opacity="0.3"/>
<path d="M3.7342 234.165V232.869C4.74753 232.687 5.6222 232.239 6.3582 231.525C7.10486 230.81 7.56886 229.898 7.7502 228.789C7.22753 229.429 6.41153 229.749 5.3022 229.749C4.32086 229.749 3.49953 229.413 2.8382 228.741C2.18753 228.069 1.8622 227.231 1.8622 226.229C1.8622 225.173 2.21953 224.303 2.9342 223.621C3.65953 222.927 4.57153 222.581 5.6702 222.581C6.89686 222.581 7.82486 222.981 8.4542 223.781C9.08353 224.581 9.3982 225.626 9.3982 226.917C9.3982 228.805 8.89153 230.426 7.8782 231.781C6.87553 233.125 5.4942 233.919 3.7342 234.165ZM5.6222 228.453C6.31553 228.453 6.87553 228.245 7.3022 227.829C7.73953 227.402 7.9582 226.847 7.9582 226.165C7.9582 225.514 7.7342 224.981 7.2862 224.565C6.84886 224.138 6.2942 223.925 5.6222 223.925C4.92886 223.925 4.36353 224.138 3.9262 224.565C3.49953 224.981 3.2862 225.514 3.2862 226.165C3.2862 226.858 3.4942 227.413 3.9102 227.829C4.33686 228.245 4.90753 228.453 5.6222 228.453ZM11.4091 235.989C11.6011 235.818 11.7931 235.573 11.9851 235.253C12.1771 234.933 12.2837 234.591 12.3051 234.229C11.9851 234.207 11.7184 234.101 11.5051 233.909C11.2917 233.706 11.1851 233.455 11.1851 233.157C11.1851 232.826 11.2864 232.554 11.4891 232.341C11.7024 232.127 11.9584 232.021 12.2571 232.021C12.5984 232.021 12.8864 232.143 13.1211 232.389C13.3557 232.623 13.4731 232.97 13.4731 233.429C13.4731 234.015 13.3237 234.554 13.0251 235.045C12.7264 235.546 12.3424 235.941 11.8731 236.229L11.4091 235.989ZM19.2108 234.165C18.4962 234.165 17.8722 233.999 17.3388 233.669C16.8055 233.327 16.3948 232.874 16.1068 232.309C15.8295 231.733 15.6215 231.119 15.4828 230.469C15.3548 229.818 15.2908 229.119 15.2908 228.373C15.2908 227.69 15.3495 227.039 15.4668 226.421C15.5842 225.791 15.7815 225.178 16.0588 224.581C16.3362 223.973 16.7415 223.487 17.2748 223.125C17.8188 222.762 18.4642 222.581 19.2108 222.581C19.9255 222.581 20.5495 222.751 21.0828 223.093C21.6162 223.423 22.0215 223.877 22.2988 224.453C22.5868 225.029 22.7948 225.642 22.9228 226.293C23.0615 226.943 23.1308 227.637 23.1308 228.373C23.1308 229.055 23.0668 229.711 22.9388 230.341C22.8215 230.959 22.6242 231.573 22.3468 232.181C22.0695 232.778 21.6588 233.258 21.1148 233.621C20.5815 233.983 19.9468 234.165 19.2108 234.165ZM19.2108 232.853C19.6908 232.853 20.1015 232.719 20.4428 232.453C20.7842 232.186 21.0348 231.818 21.1948 231.349C21.3655 230.879 21.4828 230.41 21.5468 229.941C21.6215 229.461 21.6588 228.938 21.6588 228.373C21.6588 227.775 21.6215 227.226 21.5468 226.725C21.4722 226.223 21.3442 225.754 21.1628 225.317C20.9922 224.869 20.7415 224.517 20.4108 224.261C20.0802 224.005 19.6802 223.877 19.2108 223.877C18.7202 223.877 18.3042 224.015 17.9628 224.293C17.6215 224.559 17.3655 224.927 17.1948 225.397C17.0242 225.855 16.9015 226.33 16.8268 226.821C16.7628 227.301 16.7308 227.818 16.7308 228.373C16.7308 228.97 16.7682 229.519 16.8428 230.021C16.9175 230.511 17.0455 230.981 17.2268 231.429C17.4082 231.877 17.6642 232.229 17.9948 232.485C18.3362 232.73 18.7415 232.853 19.2108 232.853ZM29.4296 234.165C28.7149 234.165 28.0909 233.999 27.5576 233.669C27.0242 233.327 26.6136 232.874 26.3256 232.309C26.0482 231.733 25.8402 231.119 25.7016 230.469C25.5736 229.818 25.5096 229.119 25.5096 228.373C25.5096 227.69 25.5682 227.039 25.6856 226.421C25.8029 225.791 26.0002 225.178 26.2776 224.581C26.5549 223.973 26.9602 223.487 27.4936 223.125C28.0376 222.762 28.6829 222.581 29.4296 222.581C30.1442 222.581 30.7682 222.751 31.3016 223.093C31.8349 223.423 32.2402 223.877 32.5176 224.453C32.8056 225.029 33.0136 225.642 33.1416 226.293C33.2802 226.943 33.3496 227.637 33.3496 228.373C33.3496 229.055 33.2856 229.711 33.1576 230.341C33.0402 230.959 32.8429 231.573 32.5656 232.181C32.2882 232.778 31.8776 233.258 31.3336 233.621C30.8002 233.983 30.1656 234.165 29.4296 234.165ZM29.4296 232.853C29.9096 232.853 30.3202 232.719 30.6616 232.453C31.0029 232.186 31.2536 231.818 31.4136 231.349C31.5842 230.879 31.7016 230.41 31.7656 229.941C31.8402 229.461 31.8776 228.938 31.8776 228.373C31.8776 227.775 31.8402 227.226 31.7656 226.725C31.6909 226.223 31.5629 225.754 31.3816 225.317C31.2109 224.869 30.9602 224.517 30.6296 224.261C30.2989 224.005 29.8989 223.877 29.4296 223.877C28.9389 223.877 28.5229 224.015 28.1816 224.293C27.8402 224.559 27.5842 224.927 27.4136 225.397C27.2429 225.855 27.1202 226.33 27.0456 226.821C26.9816 227.301 26.9496 227.818 26.9496 228.373C26.9496 228.97 26.9869 229.519 27.0616 230.021C27.1362 230.511 27.2642 230.981 27.4456 231.429C27.6269 231.877 27.8829 232.229 28.2136 232.485C28.5549 232.73 28.9602 232.853 29.4296 232.853ZM44.2939 234.165C42.0753 234.165 40.7366 232.901 40.2779 230.373H38.9659L39.4779 229.205H40.1339C40.1233 229.023 40.1179 228.751 40.1179 228.389C40.1179 228.111 40.1233 227.898 40.1339 227.749H38.9819L39.4939 226.581H40.2779C40.5019 225.418 40.9553 224.463 41.6379 223.717C42.3313 222.959 43.2753 222.581 44.4699 222.581C45.4939 222.581 46.4166 222.863 47.2379 223.429L46.6939 224.741C46.0539 224.175 45.3073 223.893 44.4539 223.893C43.0246 223.893 42.1286 224.789 41.7659 226.581H45.9259L45.4459 227.749H41.6059C41.5846 227.93 41.5739 228.186 41.5739 228.517C41.5739 228.826 41.5846 229.055 41.6059 229.205H44.8539L44.3739 230.373H41.7819C42.1766 232.015 43.0086 232.837 44.2779 232.837C45.1633 232.837 45.8779 232.453 46.4219 231.685L47.5579 232.405C47.2379 232.927 46.8006 233.354 46.2459 233.685C45.6913 234.005 45.0406 234.165 44.2939 234.165Z" fill="#EBEBF5" fill-opacity="0.3"/>
<line x1="56.5381" y1="11.4727" x2="860.04" y2="11.4727" stroke="#3D3C41"/>
<line x1="56.5381" y1="83.4727" x2="860.04" y2="83.4727" stroke="#3D3C41"/>
<line x1="56.5381" y1="155.473" x2="860.04" y2="155.473" stroke="#3D3C41"/>
<line x1="56.5381" y1="227.473" x2="860.04" y2="227.473" stroke="#3D3C41"/>
<path d="M56.5381 211.767C91.8291 205.602 120.849 168.007 162.958 161.688C185.401 158.32 203.381 164.875 223.441 175.06C243.502 185.246 239.575 189.644 284.69 197.496C321.921 203.976 331.66 134.113 368.142 136.797C404.624 139.482 421.498 55.4845 460.015 62.4963C498.533 69.508 506.229 51.3794 542.435 85.7369C578.642 120.094 612.093 40.0093 657.543 32.9976C702.994 25.9858 714.831 100.407 736.401 97.6025C757.971 94.7978 777.392 147.828 795.88 155.541C814.368 163.254 819.611 135.235 858.899 135.235" stroke="#5E5CE6" stroke-width="4" stroke-linecap="round" stroke-linejoin="round"/>
<path d="M162.958 161.336C120.849 167.656 91.8291 205.25 56.5381 211.415V226.621H858.899V134.884C819.611 134.884 814.368 162.902 795.88 155.189C777.392 147.476 757.971 94.4463 736.401 97.251C714.831 100.056 702.994 25.6343 657.543 32.646C612.093 39.6578 578.642 119.743 542.435 85.3854C506.229 51.0278 498.533 69.1564 460.015 62.1447C421.498 55.133 404.624 139.13 368.142 136.446C331.66 133.762 321.921 203.625 284.69 197.145C239.575 189.293 243.502 184.894 223.441 174.709C203.381 164.523 185.401 157.968 162.958 161.336Z" fill="url(#paint0_linear)"/>
<defs>
<linearGradient id="paint0_linear" x1="457.719" y1="32.1797" x2="457.719" y2="307.956" gradientUnits="userSpaceOnUse">
<stop stop-color="#5E5CE6" stop-opacity="0.1"/>
<stop offset="0.998978" stop-opacity="0"/>
</linearGradient>
</defs>
</svg>
