<svg width="23" height="23" viewBox="0 0 23 23" fill="none" xmlns="http://www.w3.org/2000/svg">
<path d="M11.1331 20.4935C10.1206 20.4935 9.2998 19.6727 9.2998 18.6602H12.9665C12.9665 19.6727 12.1457 20.4935 11.1331 20.4935ZM18.4665 17.7435H3.7998V15.9102L5.63314 14.9935V9.95182C5.63314 6.77832 6.93572 4.72041 9.2998 4.15849V2.16016H12.0498C11.4521 2.9521 11.1301 3.91797 11.1331 4.91016C11.1331 5.14059 11.1503 5.3707 11.1845 5.59857H11.1331C10.0147 5.52613 8.93589 6.02634 8.26855 6.92682C7.69797 7.82933 7.41801 8.88517 7.46647 9.95182V15.9102H14.7998V9.95182C14.7998 9.75841 14.7934 9.57232 14.7806 9.40182C15.3869 9.52708 16.0122 9.52926 16.6194 9.40824C16.6295 9.60166 16.6331 9.78591 16.6331 9.95824V14.9935L18.4665 15.9102V17.7435ZM15.7165 7.66016C15.1626 7.66083 14.6215 7.49368 14.1646 7.18074C13.0845 6.44244 12.6741 5.04546 13.1832 3.84032C13.6924 2.63518 14.98 1.95554 16.2623 2.21519C17.5445 2.47484 18.4663 3.60189 18.4665 4.91016C18.4665 6.42894 17.2353 7.66016 15.7165 7.66016Z" fill="white"/>
</svg>
