<svg width="23" height="23" viewBox="0 0 23 23" fill="none" xmlns="http://www.w3.org/2000/svg">
<path d="M11.1331 20.2376C10.1206 20.2376 9.2998 19.4168 9.2998 18.4043H12.9665C12.9665 19.4168 12.1457 20.2376 11.1331 20.2376ZM18.4665 17.4876H3.7998V15.6543L5.63314 14.7376V9.69596C5.63314 6.52246 6.93572 4.46455 9.2998 3.90263V1.9043H12.0498C11.4521 2.69624 11.1301 3.66211 11.1331 4.6543C11.1331 4.88473 11.1503 5.11484 11.1845 5.34271H11.1331C10.0147 5.27027 8.93589 5.77048 8.26855 6.67096C7.69797 7.57347 7.41801 8.62931 7.46647 9.69596V15.6543H14.7998V9.69596C14.7998 9.50255 14.7934 9.31646 14.7806 9.14596C15.3869 9.27122 16.0122 9.2734 16.6194 9.15238C16.6295 9.3458 16.6331 9.53005 16.6331 9.70238V14.7376L18.4665 15.6543V17.4876ZM15.7165 7.4043C15.1626 7.40497 14.6215 7.23782 14.1646 6.92488C13.0845 6.18658 12.6741 4.7896 13.1832 3.58446C13.6924 2.37932 14.98 1.69968 16.2623 1.95933C17.5445 2.21898 18.4663 3.34603 18.4665 4.6543C18.4665 6.17308 17.2353 7.4043 15.7165 7.4043Z" fill="#6F6F74"/>
</svg>
