<svg width="19" height="19" viewBox="0 0 19 19" fill="none" xmlns="http://www.w3.org/2000/svg">
<path fill-rule="evenodd" clip-rule="evenodd" d="M13.6043 12.236C13.4655 12.1897 13.4076 12.2129 13.2804 12.2823C12.864 12.5136 11.8461 13.0689 11.2446 13.3813C11.0942 13.4622 10.9323 13.5085 10.7472 13.5085C10.5506 13.5085 10.3771 13.4507 10.2267 13.3581C9.38232 12.8607 8.58419 12.2823 7.90174 11.5882C7.21929 10.9057 6.64094 10.1075 6.14355 9.263C6.05102 9.11262 5.99318 8.92753 5.99318 8.74244C5.99318 8.56892 6.03945 8.39539 6.12042 8.24501C6.43273 7.6319 6.98795 6.6139 7.21929 6.20902C7.28869 6.08177 7.31182 6.01236 7.26555 5.88511L6.28236 3.27072C6.15512 2.96994 5.86595 2.77329 5.51894 2.76172C5.38839 2.76172 5.23739 2.81288 5.19101 2.82859L5.18349 2.83113C4.04993 3.24758 3.24023 4.32342 3.24023 5.59591C3.24023 5.87754 3.29731 6.14491 3.32741 6.28594L3.32741 6.28594C3.33564 6.32449 3.34185 6.35359 3.34434 6.37097C3.89955 8.80028 5.13722 10.9635 6.83758 12.664C8.53793 14.3645 10.701 15.6023 13.13 16.1576C13.211 16.1807 13.5464 16.2617 13.905 16.2617C15.1774 16.2617 16.2531 15.452 16.6695 14.3183C16.671 14.3139 16.6734 14.3074 16.6765 14.2992C16.6974 14.2428 16.749 14.104 16.7389 13.9828C16.7158 13.6358 16.5192 13.3466 16.2184 13.2193L13.6043 12.236ZM12.794 6.69627C13.4556 7.34624 13.6529 8.27476 13.3395 8.98275C14.2913 9.18006 15.2662 8.94793 15.9278 8.26315C17.042 7.12571 16.8911 5.16422 15.5912 3.8759C14.2797 2.58758 12.3182 2.47151 11.204 3.60895C10.5424 4.28213 10.3335 5.23386 10.5192 6.16238C11.2272 5.87221 12.1325 6.04631 12.794 6.69627ZM13.3395 8.98278C13.2583 9.16848 13.1538 9.33097 13.0029 9.48186C12.2949 10.2015 11.0414 10.1318 10.2174 9.30776C9.38172 8.49531 9.28887 7.24181 9.99686 6.5222C10.1477 6.37132 10.3218 6.25526 10.5192 6.17401C10.6584 6.83558 11.0066 7.47394 11.5405 8.00783C12.0628 8.51852 12.7012 8.85511 13.3395 8.98278Z" fill="#818181"/>
</svg>
