<svg width="19" height="19" viewBox="0 0 19 19" fill="none" xmlns="http://www.w3.org/2000/svg">
<path fill-rule="evenodd" clip-rule="evenodd" d="M13.5779 12.236C13.4391 12.1897 13.3813 12.2129 13.254 12.2823C12.8376 12.5136 11.8197 13.0689 11.2182 13.3813C11.0679 13.4622 10.9059 13.5085 10.7209 13.5085C10.5242 13.5085 10.3507 13.4507 10.2003 13.3581C9.35595 12.8607 8.55783 12.2823 7.87537 11.5882C7.19292 10.9057 6.61457 10.1075 6.11719 9.263C6.02465 9.11262 5.96682 8.92753 5.96682 8.74244C5.96682 8.56892 6.01308 8.39539 6.09405 8.24501C6.40636 7.6319 6.96158 6.6139 7.19292 6.20902C7.26232 6.08177 7.28546 6.01236 7.23919 5.88511L6.25599 3.27072C6.12875 2.96994 5.83958 2.77329 5.49257 2.76172C5.36203 2.76172 5.21102 2.81288 5.16464 2.82859L5.15713 2.83113C4.02356 3.24758 3.21387 4.32342 3.21387 5.59591C3.21387 5.87754 3.27094 6.14491 3.30105 6.28594L3.30105 6.28594C3.30927 6.32449 3.31549 6.35359 3.31797 6.37097C3.87319 8.80028 5.11086 10.9635 6.81121 12.664C8.51156 14.3645 10.6746 15.6023 13.1037 16.1576C13.1846 16.1807 13.5201 16.2617 13.8787 16.2617C15.151 16.2617 16.2268 15.452 16.6432 14.3183C16.6446 14.3139 16.647 14.3074 16.6501 14.2992C16.6711 14.2428 16.7227 14.104 16.7126 13.9828C16.6894 13.6358 16.4928 13.3466 16.1921 13.2193L13.5779 12.236ZM12.7677 6.69627C13.4292 7.34624 13.6266 8.27476 13.3132 8.98275C14.2649 9.18006 15.2399 8.94793 15.9014 8.26315C17.0156 7.12571 16.8648 5.16422 15.5648 3.8759C14.2533 2.58758 12.2918 2.47151 11.1776 3.60895C10.516 4.28213 10.3071 5.23386 10.4928 6.16238C11.2008 5.87221 12.1061 6.04631 12.7677 6.69627ZM13.3132 8.98278C13.2319 9.16848 13.1275 9.33097 12.9766 9.48186C12.2686 10.2015 11.0151 10.1318 10.191 9.30776C9.35535 8.49531 9.2625 7.24181 9.9705 6.5222C10.1214 6.37132 10.2955 6.25526 10.4928 6.17401C10.6321 6.83558 10.9803 7.47394 11.5142 8.00783C12.0365 8.51852 12.6748 8.85511 13.3132 8.98278Z" fill="white"/>
</svg>
