<svg width="15" height="12" viewBox="0 0 15 12" fill="none" xmlns="http://www.w3.org/2000/svg">
<path fill-rule="evenodd" clip-rule="evenodd" d="M7.98675 2.72117H14.3307V11.6027H0.374023V0.183594H7.98675V2.72117ZM4.81478 1.45238H6.71796V2.72117H4.81478V1.45238ZM6.71796 10.3339V9.06511H4.81478V10.3339H6.71796ZM6.71796 7.79632V6.52753H4.81478V7.79632H6.71796ZM6.71796 5.25874V3.98996H4.81478V5.25874H6.71796ZM13.0619 10.3339V3.98996H7.98675V5.25874H9.25554V6.52753H7.98675V7.79632H9.25554V9.06511H7.98675V10.3339H13.0619ZM1.64281 10.3339V9.06511H3.54599V10.3339H1.64281ZM1.64281 7.79632H3.54599V6.52753H1.64281V7.79632ZM3.54599 5.25874V3.98996H1.64281V5.25874H3.54599ZM1.64281 2.72117H3.54599V1.45238H1.64281V2.72117Z" fill="#959596"/>
</svg>
