<svg width="15" height="12" viewBox="0 0 15 12" fill="none" xmlns="http://www.w3.org/2000/svg">
<path fill-rule="evenodd" clip-rule="evenodd" d="M8.14495 2.72117H14.4889V11.6027H0.532227V0.183594H8.14495V2.72117ZM4.97298 1.45238H6.87616V2.72117H4.97298V1.45238ZM6.87616 10.3339V9.06511H4.97298V10.3339H6.87616ZM6.87616 7.79632V6.52753H4.97298V7.79632H6.87616ZM6.87616 5.25874V3.98996H4.97298V5.25874H6.87616ZM13.2201 10.3339V3.98996H8.14495V5.25874H9.41374V6.52753H8.14495V7.79632H9.41374V9.06511H8.14495V10.3339H13.2201ZM1.80101 10.3339V9.06511H3.7042V10.3339H1.80101ZM1.80101 7.79632H3.7042V6.52753H1.80101V7.79632ZM3.7042 5.25874V3.98996H1.80101V5.25874H3.7042ZM1.80101 2.72117H3.7042V1.45238H1.80101V2.72117Z" fill="white"/>
</svg>
