<svg width="11" height="11" viewBox="0 0 11 11" fill="none" xmlns="http://www.w3.org/2000/svg">
<path fill-rule="evenodd" clip-rule="evenodd" d="M2.73682 1.9618V1.41675C2.73682 0.814475 3.22485 0.32666 3.82691 0.32666H7.09718C7.69924 0.32666 8.18727 0.814475 8.18727 1.41675V1.9618H9.82241C10.1234 1.9618 10.3675 2.20598 10.3675 2.50684C10.3675 2.80771 10.1234 3.05189 9.82241 3.05189H9.27736V9.04738C9.27736 9.95052 8.54531 10.6825 7.64223 10.6825H3.28187C2.37878 10.6825 1.64673 9.95052 1.64673 9.04738V3.05189H1.10169C0.800657 3.05189 0.556641 2.80771 0.556641 2.50684C0.556641 2.20598 0.800657 1.9618 1.10169 1.9618H2.73682ZM3.82691 1.41675H7.09718V1.9618H3.82691V1.41675ZM2.73682 3.05189H8.18727V9.04738C8.18727 9.34825 7.94325 9.59243 7.64223 9.59243H3.28187C2.98084 9.59243 2.73682 9.34825 2.73682 9.04738V3.05189Z" fill="url(#paint0_linear)"/>
<defs>
<linearGradient id="paint0_linear" x1="34.6369" y1="13.1273" x2="30.3032" y2="21.1964" gradientUnits="userSpaceOnUse">
<stop stop-color="#E35CE6"/>
<stop offset="1" stop-color="#5E5CE6"/>
</linearGradient>
</defs>
</svg>
