<svg width="14" height="14" viewBox="0 0 14 14" fill="none" xmlns="http://www.w3.org/2000/svg">
<path fill-rule="evenodd" clip-rule="evenodd" d="M12.7893 0.370988C12.5397 0.121129 12.1351 0.121129 11.8856 0.370988C11.8223 0.434252 11.7264 0.449602 11.6429 0.417012C10.9573 0.153733 10.1507 0.298163 9.59785 0.850921L2.64908 7.79967C2.54926 7.89936 2.54926 8.0617 2.64908 8.16138L5.90249 11.4147C6.00231 11.5144 6.16417 11.5144 6.26399 11.4147L13.2127 4.46588C13.7656 3.91312 13.9102 3.10667 13.6465 2.42099C13.6143 2.33728 13.6297 2.24142 13.693 2.17816C13.9426 1.9283 13.9426 1.52379 13.693 1.27457L12.7893 0.370988ZM12.4629 3.0466C12.5627 3.14629 12.5627 3.30859 12.4629 3.40827L6.26399 9.6075C6.16417 9.70719 6.00231 9.70719 5.90249 9.6075L4.4565 8.16138C4.35669 8.0617 4.35669 7.89936 4.4565 7.79967L10.6554 1.60115C10.7553 1.50082 10.9171 1.50082 11.0169 1.60115L12.4629 3.0466Z" fill="white"/>
<path d="M0.782155 13.5814C0.591342 13.6332 0.416249 13.4581 0.468266 13.2677L1.59046 9.15359C1.64209 8.9638 1.87904 8.90119 2.01784 9.03985L5.00963 12.0324C5.14837 12.1711 5.08542 12.4075 4.89608 12.4593L0.782155 13.5814Z" fill="white"/>
</svg>
