<svg width="13" height="12" viewBox="0 0 13 12" fill="none" xmlns="http://www.w3.org/2000/svg">
<path fill-rule="evenodd" clip-rule="evenodd" d="M11.0731 0.486495C10.8602 0.273382 10.5151 0.273382 10.3023 0.486495C10.2483 0.540454 10.1665 0.553547 10.0953 0.52575C9.5105 0.301191 8.8226 0.42438 8.35102 0.895844L2.4242 6.82264C2.33907 6.90767 2.33907 7.04613 2.4242 7.13116L5.19914 9.90599C5.28427 9.99101 5.42233 9.99101 5.50747 9.90599L11.4342 3.97915C11.9058 3.50769 12.0292 2.81984 11.8042 2.235C11.7768 2.1636 11.7899 2.08184 11.8439 2.02788C12.0568 1.81477 12.0568 1.46976 11.8439 1.25719L11.0731 0.486495ZM10.7947 2.7686C10.8799 2.85363 10.8799 2.99206 10.7947 3.07709L5.50747 8.3646C5.42233 8.44963 5.28427 8.44963 5.19914 8.3646L3.96581 7.13116C3.88067 7.04613 3.88067 6.90767 3.96581 6.82264L9.25307 1.53573C9.33821 1.45016 9.47627 1.45016 9.56141 1.53573L10.7947 2.7686Z" fill="#5E5CE6"/>
<path d="M0.832283 11.7545C0.669532 11.7987 0.52019 11.6493 0.564557 11.4869L1.52171 7.97788C1.56575 7.816 1.76785 7.7626 1.88624 7.88087L4.43803 10.4333C4.55636 10.5516 4.50267 10.7533 4.34117 10.7974L0.832283 11.7545Z" fill="#5E5CE6"/>
</svg>
