<svg width="15" height="14" viewBox="0 0 15 14" fill="none" xmlns="http://www.w3.org/2000/svg">
<path fill-rule="evenodd" clip-rule="evenodd" d="M13.1555 0.370988C12.906 0.121129 12.5013 0.121129 12.2518 0.370988C12.1885 0.434252 12.0926 0.449602 12.0091 0.417012C11.3235 0.153733 10.517 0.298163 9.96407 0.850921L3.01529 7.79967C2.91548 7.89936 2.91548 8.0617 3.01529 8.16138L6.2687 11.4147C6.36852 11.5144 6.53038 11.5144 6.6302 11.4147L13.5789 4.46588C14.1318 3.91312 14.2764 3.10667 14.0127 2.42099C13.9805 2.33728 13.9959 2.24142 14.0592 2.17816C14.3088 1.9283 14.3088 1.52379 14.0592 1.27457L13.1555 0.370988ZM12.8291 3.0466C12.929 3.14629 12.929 3.30859 12.8291 3.40827L6.6302 9.6075C6.53038 9.70719 6.36852 9.70719 6.2687 9.6075L4.82271 8.16138C4.7229 8.0617 4.7229 7.89936 4.82271 7.79967L11.0217 1.60115C11.1215 1.50082 11.2833 1.50082 11.3832 1.60115L12.8291 3.0466Z" fill="#818181"/>
<path d="M1.14837 13.5814C0.957553 13.6332 0.78246 13.4581 0.834477 13.2677L1.95667 9.15359C2.0083 8.9638 2.24526 8.90119 2.38405 9.03985L5.37584 12.0324C5.51458 12.1711 5.45163 12.4075 5.26229 12.4593L1.14837 13.5814Z" fill="#818181"/>
</svg>
