<svg width="25" height="25" viewBox="0 0 25 25" fill="none" xmlns="http://www.w3.org/2000/svg">
<path fill-rule="evenodd" clip-rule="evenodd" d="M10.7107 12.9164L19.9492 12.9164L17.8622 15.0034L18.7107 15.8519L21.5391 13.0235C21.9297 12.633 21.9297 11.9998 21.5391 11.6093L18.7107 8.78087L17.8622 9.6294L19.9492 11.7164L10.7107 11.7164L10.7107 12.9164ZM16.0107 16.3164L16.0107 19.1164L3.41071 19.1164L3.41071 5.51641L16.0107 5.51641L16.0107 8.31641L17.2107 8.31641L17.2107 5.31536C17.2107 4.76365 16.7618 4.31641 16.2149 4.31641L3.20652 4.31641C2.65655 4.31641 2.21071 4.76533 2.21071 5.31221L2.21071 19.3206C2.21071 19.8706 2.65963 20.3164 3.20652 20.3164L16.2149 20.3164C16.7649 20.3164 17.2107 19.8673 17.2107 19.3174L17.2107 16.3164L16.0107 16.3164Z" fill="url(#paint0_linear)"/>
<path d="M19.9492 12.9164L20.3027 13.27L21.1563 12.4164L19.9492 12.4164L19.9492 12.9164ZM10.7107 12.9164L10.2107 12.9164L10.2107 13.4164L10.7107 13.4164L10.7107 12.9164ZM17.8622 15.0034L17.5086 14.6499L17.1551 15.0034L17.5086 15.357L17.8622 15.0034ZM18.7107 15.8519L18.3572 16.2055L18.7107 16.559L19.0643 16.2055L18.7107 15.8519ZM21.5391 13.0235L21.1856 12.67L21.1856 12.67L21.5391 13.0235ZM21.5391 11.6093L21.1856 11.9629L21.1856 11.9629L21.5391 11.6093ZM18.7107 8.78087L19.0643 8.42732L18.7107 8.07377L18.3572 8.42732L18.7107 8.78087ZM17.8622 9.6294L17.5086 9.27585L17.1551 9.6294L17.5086 9.98295L17.8622 9.6294ZM19.9492 11.7164L19.9492 12.2164L21.1563 12.2164L20.3027 11.3628L19.9492 11.7164ZM10.7107 11.7164L10.7107 11.2164L10.2107 11.2164L10.2107 11.7164L10.7107 11.7164ZM16.0107 19.1164L16.0107 19.6164L16.5107 19.6164L16.5107 19.1164L16.0107 19.1164ZM16.0107 16.3164L16.0107 15.8164L15.5107 15.8164L15.5107 16.3164L16.0107 16.3164ZM3.41071 19.1164L2.91071 19.1164L2.91071 19.6164L3.41071 19.6164L3.41071 19.1164ZM3.41071 5.51641L3.41071 5.01641L2.91071 5.01641L2.91071 5.51641L3.41071 5.51641ZM16.0107 5.51641L16.5107 5.51641L16.5107 5.01641L16.0107 5.01641L16.0107 5.51641ZM16.0107 8.31641L15.5107 8.31641L15.5107 8.81641L16.0107 8.81641L16.0107 8.31641ZM17.2107 8.31641L17.2107 8.81641L17.7107 8.81641L17.7107 8.31641L17.2107 8.31641ZM16.2149 4.31641L16.2149 3.81641L16.2149 4.31641ZM3.20652 4.31641L3.20652 4.81641L3.20652 4.31641ZM3.20652 20.3164L3.20652 20.8164L3.20652 20.3164ZM16.2149 20.3164L16.2149 19.8164L16.2149 20.3164ZM17.2107 16.3164L17.7107 16.3164L17.7107 15.8164L17.2107 15.8164L17.2107 16.3164ZM19.9492 12.4164L10.7107 12.4164L10.7107 13.4164L19.9492 13.4164L19.9492 12.4164ZM18.2157 15.357L20.3027 13.27L19.5956 12.5628L17.5086 14.6499L18.2157 15.357ZM19.0643 15.4984L18.2157 14.6499L17.5086 15.357L18.3572 16.2055L19.0643 15.4984ZM21.1856 12.67L18.3572 15.4984L19.0643 16.2055L21.8927 13.3771L21.1856 12.67ZM21.1856 11.9629C21.3808 12.1581 21.3808 12.4747 21.1856 12.67L21.8927 13.3771C22.4785 12.7913 22.4785 11.8415 21.8927 11.2557L21.1856 11.9629ZM18.3572 9.13443L21.1856 11.9629L21.8927 11.2557L19.0643 8.42732L18.3572 9.13443ZM18.2157 9.98295L19.0643 9.13443L18.3572 8.42732L17.5086 9.27585L18.2157 9.98295ZM20.3027 11.3628L18.2157 9.27585L17.5086 9.98295L19.5956 12.07L20.3027 11.3628ZM10.7107 12.2164L19.9492 12.2164L19.9492 11.2164L10.7107 11.2164L10.7107 12.2164ZM11.2107 12.9164L11.2107 11.7164L10.2107 11.7164L10.2107 12.9164L11.2107 12.9164ZM16.5107 19.1164L16.5107 16.3164L15.5107 16.3164L15.5107 19.1164L16.5107 19.1164ZM3.41071 19.6164L16.0107 19.6164L16.0107 18.6164L3.41071 18.6164L3.41071 19.6164ZM2.91071 5.51641L2.91071 19.1164L3.91071 19.1164L3.91071 5.51641L2.91071 5.51641ZM16.0107 5.01641L3.41071 5.01641L3.41071 6.01641L16.0107 6.01641L16.0107 5.01641ZM16.5107 8.31641L16.5107 5.51641L15.5107 5.51641L15.5107 8.31641L16.5107 8.31641ZM17.2107 7.81641L16.0107 7.81641L16.0107 8.81641L17.2107 8.81641L17.2107 7.81641ZM16.7107 5.31536L16.7107 8.31641L17.7107 8.31641L17.7107 5.31536L16.7107 5.31536ZM16.2149 4.81641C16.4852 4.81641 16.7107 5.03932 16.7107 5.31536L17.7107 5.31536C17.7107 4.48799 17.0384 3.81641 16.2149 3.81641L16.2149 4.81641ZM3.20652 4.81641L16.2149 4.81641L16.2149 3.81641L3.20652 3.81641L3.20652 4.81641ZM2.71071 5.31221C2.71071 5.04046 2.9337 4.81641 3.20652 4.81641L3.20652 3.81641C2.3794 3.81641 1.71071 4.49019 1.71071 5.31221L2.71071 5.31221ZM2.71071 19.3206L2.71071 5.31221L1.71071 5.31221L1.71071 19.3206L2.71071 19.3206ZM3.20652 19.8164C2.93477 19.8164 2.71071 19.5934 2.71071 19.3206L1.71071 19.3206C1.71071 20.1477 2.3845 20.8164 3.20652 20.8164L3.20652 19.8164ZM16.2149 19.8164L3.20652 19.8164L3.20652 20.8164L16.2149 20.8164L16.2149 19.8164ZM16.7107 19.3174C16.7107 19.5932 16.4866 19.8164 16.2149 19.8164L16.2149 20.8164C17.0431 20.8164 17.7107 20.1413 17.7107 19.3174L16.7107 19.3174ZM16.7107 16.3164L16.7107 19.3174L17.7107 19.3174L17.7107 16.3164L16.7107 16.3164ZM16.0107 16.8164L17.2107 16.8164L17.2107 15.8164L16.0107 15.8164L16.0107 16.8164Z" fill="url(#paint1_linear)"/>
<defs>
<linearGradient id="paint0_linear" x1="33.1599" y1="-1.48488" x2="-11.4799" y2="-15.2689" gradientUnits="userSpaceOnUse">
<stop stop-color="#5E5CE6"/>
<stop offset="1" stop-color="#BA5CE6"/>
</linearGradient>
<linearGradient id="paint1_linear" x1="24.0731" y1="6.89657" x2="-23.0743" y2="29.4319" gradientUnits="userSpaceOnUse">
<stop stop-color="#5E5CE6"/>
<stop offset="1" stop-color="#D25CE6"/>
</linearGradient>
</defs>
</svg>
