<svg width="25" height="25" viewBox="0 0 25 25" fill="none" xmlns="http://www.w3.org/2000/svg">
<path fill-rule="evenodd" clip-rule="evenodd" d="M11.0398 12.9164L20.2783 12.9164L18.1913 15.0034L19.0398 15.8519L21.8682 13.0235C22.2588 12.633 22.2588 11.9998 21.8682 11.6093L19.0398 8.78087L18.1913 9.6294L20.2783 11.7164L11.0398 11.7164L11.0398 12.9164ZM16.3398 16.3164L16.3398 19.1164L3.73981 19.1164L3.73981 5.51641L16.3398 5.51641L16.3398 8.31641L17.5398 8.31641L17.5398 5.31536C17.5398 4.76365 17.0909 4.31641 16.544 4.31641L3.53562 4.31641C2.98565 4.31641 2.53981 4.76533 2.53981 5.31221L2.53981 19.3206C2.53981 19.8706 2.98873 20.3164 3.53562 20.3164L16.544 20.3164C17.094 20.3164 17.5398 19.8673 17.5398 19.3174L17.5398 16.3164L16.3398 16.3164Z" fill="#6F6F74"/>
<path d="M20.2783 12.9164L20.6318 13.27L21.4854 12.4164L20.2783 12.4164L20.2783 12.9164ZM11.0398 12.9164L10.5398 12.9164L10.5398 13.4164L11.0398 13.4164L11.0398 12.9164ZM18.1913 15.0034L17.8377 14.6499L17.4842 15.0034L17.8377 15.357L18.1913 15.0034ZM19.0398 15.8519L18.6863 16.2055L19.0398 16.559L19.3934 16.2055L19.0398 15.8519ZM21.8682 13.0235L21.5147 12.67L21.5147 12.67L21.8682 13.0235ZM21.8682 11.6093L21.5147 11.9629L21.5147 11.9629L21.8682 11.6093ZM19.0398 8.78087L19.3934 8.42732L19.0398 8.07377L18.6863 8.42732L19.0398 8.78087ZM18.1913 9.6294L17.8377 9.27585L17.4842 9.6294L17.8377 9.98295L18.1913 9.6294ZM20.2783 11.7164L20.2783 12.2164L21.4854 12.2164L20.6318 11.3628L20.2783 11.7164ZM11.0398 11.7164L11.0398 11.2164L10.5398 11.2164L10.5398 11.7164L11.0398 11.7164ZM16.3398 19.1164L16.3398 19.6164L16.8398 19.6164L16.8398 19.1164L16.3398 19.1164ZM16.3398 16.3164L16.3398 15.8164L15.8398 15.8164L15.8398 16.3164L16.3398 16.3164ZM3.73981 19.1164L3.23981 19.1164L3.23981 19.6164L3.73981 19.6164L3.73981 19.1164ZM3.73981 5.51641L3.73981 5.01641L3.23981 5.01641L3.23981 5.51641L3.73981 5.51641ZM16.3398 5.51641L16.8398 5.51641L16.8398 5.01641L16.3398 5.01641L16.3398 5.51641ZM16.3398 8.31641L15.8398 8.31641L15.8398 8.81641L16.3398 8.81641L16.3398 8.31641ZM17.5398 8.31641L17.5398 8.81641L18.0398 8.81641L18.0398 8.31641L17.5398 8.31641ZM17.5398 16.3164L18.0398 16.3164L18.0398 15.8164L17.5398 15.8164L17.5398 16.3164ZM20.2783 12.4164L11.0398 12.4164L11.0398 13.4164L20.2783 13.4164L20.2783 12.4164ZM18.5448 15.357L20.6318 13.27L19.9247 12.5628L17.8377 14.6499L18.5448 15.357ZM19.3934 15.4984L18.5448 14.6499L17.8377 15.357L18.6863 16.2055L19.3934 15.4984ZM21.5147 12.67L18.6863 15.4984L19.3934 16.2055L22.2218 13.3771L21.5147 12.67ZM21.5147 11.9629C21.7099 12.1581 21.7099 12.4747 21.5147 12.67L22.2218 13.3771C22.8076 12.7913 22.8076 11.8415 22.2218 11.2557L21.5147 11.9629ZM18.6863 9.13443L21.5147 11.9629L22.2218 11.2557L19.3934 8.42732L18.6863 9.13443ZM18.5448 9.98295L19.3934 9.13443L18.6863 8.42732L17.8377 9.27585L18.5448 9.98295ZM20.6318 11.3628L18.5448 9.27585L17.8377 9.98295L19.9247 12.07L20.6318 11.3628ZM11.0398 12.2164L20.2783 12.2164L20.2783 11.2164L11.0398 11.2164L11.0398 12.2164ZM11.5398 12.9164L11.5398 11.7164L10.5398 11.7164L10.5398 12.9164L11.5398 12.9164ZM16.8398 19.1164L16.8398 16.3164L15.8398 16.3164L15.8398 19.1164L16.8398 19.1164ZM3.73981 19.6164L16.3398 19.6164L16.3398 18.6164L3.73981 18.6164L3.73981 19.6164ZM3.23981 5.51641L3.23981 19.1164L4.23981 19.1164L4.23981 5.51641L3.23981 5.51641ZM16.3398 5.01641L3.73981 5.01641L3.73981 6.01641L16.3398 6.01641L16.3398 5.01641ZM16.8398 8.31641L16.8398 5.51641L15.8398 5.51641L15.8398 8.31641L16.8398 8.31641ZM17.5398 7.81641L16.3398 7.81641L16.3398 8.81641L17.5398 8.81641L17.5398 7.81641ZM17.0398 5.31536L17.0398 8.31641L18.0398 8.31641L18.0398 5.31536L17.0398 5.31536ZM16.544 4.81641C16.8143 4.81641 17.0398 5.03932 17.0398 5.31536L18.0398 5.31536C18.0398 4.48799 17.3675 3.81641 16.544 3.81641L16.544 4.81641ZM3.53562 4.81641L16.544 4.81641L16.544 3.81641L3.53562 3.81641L3.53562 4.81641ZM3.03981 5.31221C3.03981 5.04046 3.2628 4.81641 3.53562 4.81641L3.53562 3.81641C2.7085 3.81641 2.03981 4.49019 2.03981 5.31221L3.03981 5.31221ZM3.03981 19.3206L3.03981 5.31221L2.03981 5.31221L2.03981 19.3206L3.03981 19.3206ZM3.53562 19.8164C3.26387 19.8164 3.03981 19.5934 3.03981 19.3206L2.03981 19.3206C2.03981 20.1477 2.7136 20.8164 3.53562 20.8164L3.53562 19.8164ZM16.544 19.8164L3.53562 19.8164L3.53562 20.8164L16.544 20.8164L16.544 19.8164ZM17.0398 19.3174C17.0398 19.5932 16.8157 19.8164 16.544 19.8164L16.544 20.8164C17.3722 20.8164 18.0398 20.1413 18.0398 19.3174L17.0398 19.3174ZM17.0398 16.3164L17.0398 19.3174L18.0398 19.3174L18.0398 16.3164L17.0398 16.3164ZM16.3398 16.8164L17.5398 16.8164L17.5398 15.8164L16.3398 15.8164L16.3398 16.8164Z" fill="#6F6F74"/>
</svg>
