<svg width="15" height="13" viewBox="0 0 15 13" fill="none" xmlns="http://www.w3.org/2000/svg">
<path fill-rule="evenodd" clip-rule="evenodd" d="M4.18039 2.36412V1.72972C4.18039 1.02872 4.74817 0.460938 5.44917 0.460938H9.25554C9.95654 0.460938 10.5243 1.02872 10.5243 1.72972V2.36412H12.4275C13.4787 2.36412 14.3307 3.21611 14.3307 4.2673V10.6112C14.3307 11.6643 13.4787 12.5144 12.4275 12.5144H2.2772C1.22601 12.5144 0.374023 11.6643 0.374023 10.6112V4.2673C0.374023 3.21611 1.22601 2.36412 2.2772 2.36412H4.18039ZM5.44917 1.72972H9.25554V2.36412H5.44917V1.72972ZM2.2772 3.63291C1.92702 3.63291 1.64281 3.91711 1.64281 4.2673V8.07366H13.0619V4.2673C13.0619 3.91711 12.7777 3.63291 12.4275 3.63291H2.2772ZM1.64281 10.6112V9.34245H13.0619V10.6112C13.0619 10.9602 12.7777 11.2456 12.4275 11.2456H2.2772C1.92702 11.2456 1.64281 10.9602 1.64281 10.6112Z" fill="#959596"/>
</svg>
