<svg width="15" height="13" viewBox="0 0 15 13" fill="none" xmlns="http://www.w3.org/2000/svg">
<path fill-rule="evenodd" clip-rule="evenodd" d="M4.33859 2.36412V1.72972C4.33859 1.02872 4.90637 0.460938 5.60738 0.460938H9.41374C10.1147 0.460938 10.6825 1.02872 10.6825 1.72972V2.36412H12.5857C13.6369 2.36412 14.4889 3.21611 14.4889 4.2673V10.6112C14.4889 11.6643 13.6369 12.5144 12.5857 12.5144H2.43541C1.38422 12.5144 0.532227 11.6643 0.532227 10.6112V4.2673C0.532227 3.21611 1.38422 2.36412 2.43541 2.36412H4.33859ZM5.60738 1.72972H9.41374V2.36412H5.60738V1.72972ZM2.43541 3.63291C2.08522 3.63291 1.80101 3.91711 1.80101 4.2673V8.07366H13.2201V4.2673C13.2201 3.91711 12.9359 3.63291 12.5857 3.63291H2.43541ZM1.80101 10.6112V9.34245H13.2201V10.6112C13.2201 10.9602 12.9359 11.2456 12.5857 11.2456H2.43541C2.08522 11.2456 1.80101 10.9602 1.80101 10.6112Z" fill="white"/>
</svg>
