<svg width="15" height="15" viewBox="0 0 15 15" fill="none" xmlns="http://www.w3.org/2000/svg">
<path fill-rule="evenodd" clip-rule="evenodd" d="M4.92578 5.65476C4.92578 7.05614 6.06198 8.19234 7.46336 8.19234C8.86473 8.19234 10.0009 7.05614 10.0009 5.65476C10.0009 4.25339 8.86473 3.11719 7.46336 3.11719C6.06198 3.11719 4.92578 4.25339 4.92578 5.65476ZM6.19457 5.65476C6.19457 6.35577 6.76235 6.92355 7.46336 6.92355C8.16436 6.92355 8.73214 6.35577 8.73214 5.65476C8.73214 4.95376 8.16436 4.38597 7.46336 4.38597C6.76235 4.38597 6.19457 4.95376 6.19457 5.65476Z" fill="#959596"/>
<path fill-rule="evenodd" clip-rule="evenodd" d="M7.46368 0.578125C11.3176 0.578125 14.442 3.70251 14.442 7.55646C14.442 11.4104 11.3176 14.5348 7.46368 14.5348C3.60974 14.5348 0.485352 11.4104 0.485352 7.55646C0.485352 3.70251 3.60974 0.578125 7.46368 0.578125ZM13.1732 7.55646C13.1732 8.88234 12.7209 10.1029 11.9628 11.0723C10.9199 9.70641 9.27424 8.82524 7.42308 8.82524C5.5954 8.82524 3.9688 9.68358 2.92396 11.019C2.18996 10.0585 1.75414 8.85823 1.75414 7.55646C1.75414 4.40288 4.31011 1.84691 7.46368 1.84691C10.6173 1.84691 13.1732 4.40288 13.1732 7.55646ZM7.46368 13.266C8.82763 13.266 10.0799 12.7877 11.062 11.9896C10.2588 10.8432 8.9285 10.094 7.42308 10.094C5.93607 10.094 4.6197 10.8249 3.81338 11.9471C4.80304 12.7706 6.07563 13.266 7.46368 13.266Z" fill="#959596"/>
</svg>
