<svg width="15" height="15" viewBox="0 0 15 15" fill="none" xmlns="http://www.w3.org/2000/svg">
<path fill-rule="evenodd" clip-rule="evenodd" d="M5.08398 5.65476C5.08398 7.05614 6.22018 8.19234 7.62156 8.19234C9.02293 8.19234 10.1591 7.05614 10.1591 5.65476C10.1591 4.25339 9.02293 3.11719 7.62156 3.11719C6.22018 3.11719 5.08398 4.25339 5.08398 5.65476ZM6.35277 5.65476C6.35277 6.35577 6.92055 6.92355 7.62156 6.92355C8.32256 6.92355 8.89035 6.35577 8.89035 5.65476C8.89035 4.95376 8.32256 4.38597 7.62156 4.38597C6.92055 4.38597 6.35277 4.95376 6.35277 5.65476Z" fill="white"/>
<path fill-rule="evenodd" clip-rule="evenodd" d="M7.62189 0.578125C11.4758 0.578125 14.6002 3.70251 14.6002 7.55646C14.6002 11.4104 11.4758 14.5348 7.62189 14.5348C3.76794 14.5348 0.643555 11.4104 0.643555 7.55646C0.643555 3.70251 3.76794 0.578125 7.62189 0.578125ZM13.3314 7.55646C13.3314 8.88234 12.8791 10.1029 12.121 11.0723C11.0781 9.70641 9.43245 8.82524 7.58129 8.82524C5.7536 8.82524 4.12701 9.68358 3.08216 11.019C2.34817 10.0585 1.91234 8.85823 1.91234 7.55646C1.91234 4.40288 4.46831 1.84691 7.62189 1.84691C10.7755 1.84691 13.3314 4.40288 13.3314 7.55646ZM7.62189 13.266C8.98583 13.266 10.2381 12.7877 11.2202 11.9896C10.417 10.8432 9.0867 10.094 7.58129 10.094C6.09427 10.094 4.7779 10.8249 3.97159 11.9471C4.96124 12.7706 6.23383 13.266 7.62189 13.266Z" fill="white"/>
</svg>
