<svg width="20" height="21" viewBox="0 0 20 21" fill="none" xmlns="http://www.w3.org/2000/svg">
<path d="M12.0626 20.3164H8.42259C7.95271 20.3164 7.54615 19.9894 7.44559 19.5304L7.03859 17.6464C6.49565 17.4085 5.98082 17.111 5.50359 16.7594L3.66659 17.3444C3.21859 17.4873 2.73158 17.2987 2.49659 16.8914L0.672594 13.7404C0.440182 13.3329 0.520253 12.8189 0.865594 12.5014L2.29059 11.2014C2.22579 10.6125 2.22579 10.0183 2.29059 9.42941L0.865594 8.13241C0.519744 7.81477 0.439642 7.30013 0.672594 6.89241L2.49259 3.73941C2.72758 3.3321 3.21459 3.14354 3.66259 3.28641L5.49959 3.87141C5.74366 3.69056 5.99773 3.52363 6.26059 3.37141C6.51293 3.2291 6.77263 3.10025 7.03859 2.98541L7.44659 1.10341C7.54666 0.644375 7.95278 0.316901 8.42259 0.316406H12.0626C12.5324 0.316901 12.9385 0.644375 13.0386 1.10341L13.4506 2.98641C13.7314 3.10992 14.0048 3.24949 14.2696 3.40441C14.5165 3.54722 14.7552 3.7038 14.9846 3.87341L16.8226 3.28841C17.2703 3.14608 17.7567 3.33457 17.9916 3.74141L19.8116 6.89441C20.044 7.30189 19.9639 7.81592 19.6186 8.13341L18.1936 9.43341C18.2584 10.0223 18.2584 10.6165 18.1936 11.2054L19.6186 12.5054C19.9639 12.8229 20.044 13.3369 19.8116 13.7444L17.9916 16.8974C17.7567 17.3042 17.2703 17.4927 16.8226 17.3504L14.9846 16.7654C14.752 16.9367 14.5103 17.0953 14.2606 17.2404C13.9984 17.3923 13.728 17.5295 13.4506 17.6514L13.0386 19.5304C12.9381 19.989 12.5321 20.316 12.0626 20.3164ZM5.86259 14.5454L6.68259 15.1454C6.86744 15.2816 7.06011 15.4068 7.25959 15.5204C7.4473 15.6291 7.64056 15.7279 7.83859 15.8164L8.77159 16.2254L9.22859 18.3164H11.2586L11.7156 16.2244L12.6486 15.8154C13.0559 15.6358 13.4425 15.4125 13.8016 15.1494L14.6226 14.5494L16.6636 15.1994L17.6786 13.4414L16.0956 11.9984L16.2076 10.9864C16.2568 10.5438 16.2568 10.097 16.2076 9.65441L16.0956 8.64241L17.6796 7.19641L16.6636 5.43741L14.6226 6.08741L13.8016 5.48741C13.4424 5.22312 13.0558 4.99816 12.6486 4.81641L11.7156 4.40741L11.2586 2.31641H9.22859L8.76959 4.40841L7.83859 4.81641C7.6404 4.90345 7.44711 5.00126 7.25959 5.10941C7.06133 5.22274 6.86969 5.34727 6.68559 5.48241L5.86459 6.08241L3.82459 5.43241L2.80759 7.19641L4.39059 8.63741L4.27859 9.65041C4.2294 10.093 4.2294 10.5398 4.27859 10.9824L4.39059 11.9944L2.80759 13.4374L3.82259 15.1954L5.86259 14.5454ZM10.2386 14.3164C8.02946 14.3164 6.23859 12.5255 6.23859 10.3164C6.23859 8.10727 8.02946 6.31641 10.2386 6.31641C12.4477 6.31641 14.2386 8.10727 14.2386 10.3164C14.2358 12.5244 12.4466 14.3137 10.2386 14.3164ZM10.2386 8.31641C9.14599 8.31751 8.25648 9.19525 8.24083 10.2877C8.22517 11.3802 9.08916 12.2831 10.1813 12.3155C11.2734 12.3479 12.1894 11.4979 12.2386 10.4064V10.8064V10.3164C12.2386 9.21184 11.3432 8.31641 10.2386 8.31641Z" fill="#6F6F74"/>
</svg>
