<svg width="20" height="21" viewBox="0 0 20 21" fill="none" xmlns="http://www.w3.org/2000/svg">
<path d="M11.7335 20.3164H8.09349C7.62361 20.3164 7.21705 19.9894 7.11649 19.5304L6.70949 17.6464C6.16654 17.4085 5.65172 17.111 5.17449 16.7594L3.33749 17.3444C2.88949 17.4873 2.40248 17.2987 2.16749 16.8914L0.343493 13.7404C0.111081 13.3329 0.191151 12.8189 0.536493 12.5014L1.96149 11.2014C1.89669 10.6125 1.89669 10.0183 1.96149 9.42941L0.536493 8.13241C0.190643 7.81477 0.11054 7.30013 0.343493 6.89241L2.16349 3.73941C2.39848 3.3321 2.88549 3.14354 3.33349 3.28641L5.17049 3.87141C5.41456 3.69056 5.66863 3.52363 5.93149 3.37141C6.18383 3.2291 6.44353 3.10025 6.70949 2.98541L7.11749 1.10341C7.21756 0.644375 7.62368 0.316901 8.09349 0.316406H11.7335C12.2033 0.316901 12.6094 0.644375 12.7095 1.10341L13.1215 2.98641C13.4023 3.10992 13.6757 3.24949 13.9405 3.40441C14.1874 3.54722 14.4261 3.7038 14.6555 3.87341L16.4935 3.28841C16.9412 3.14608 17.4276 3.33457 17.6625 3.74141L19.4825 6.89441C19.7149 7.30189 19.6348 7.81592 19.2895 8.13341L17.8645 9.43341C17.9293 10.0223 17.9293 10.6165 17.8645 11.2054L19.2895 12.5054C19.6348 12.8229 19.7149 13.3369 19.4825 13.7444L17.6625 16.8974C17.4276 17.3042 16.9412 17.4927 16.4935 17.3504L14.6555 16.7654C14.4229 16.9367 14.1812 17.0953 13.9315 17.2404C13.6693 17.3923 13.3989 17.5295 13.1215 17.6514L12.7095 19.5304C12.609 19.989 12.203 20.316 11.7335 20.3164ZM5.53349 14.5454L6.35349 15.1454C6.53834 15.2816 6.73101 15.4068 6.93049 15.5204C7.11819 15.6291 7.31146 15.7279 7.50949 15.8164L8.44249 16.2254L8.89949 18.3164H10.9295L11.3865 16.2244L12.3195 15.8154C12.7268 15.6358 13.1134 15.4125 13.4725 15.1494L14.2935 14.5494L16.3345 15.1994L17.3495 13.4414L15.7665 11.9984L15.8785 10.9864C15.9277 10.5438 15.9277 10.097 15.8785 9.65441L15.7665 8.64241L17.3505 7.19641L16.3345 5.43741L14.2935 6.08741L13.4725 5.48741C13.1133 5.22312 12.7267 4.99816 12.3195 4.81641L11.3865 4.40741L10.9295 2.31641H8.89949L8.44049 4.40841L7.50949 4.81641C7.3113 4.90345 7.11801 5.00126 6.93049 5.10941C6.73223 5.22274 6.54059 5.34727 6.35649 5.48241L5.53549 6.08241L3.49549 5.43241L2.47849 7.19641L4.06149 8.63741L3.94949 9.65041C3.9003 10.093 3.9003 10.5398 3.94949 10.9824L4.06149 11.9944L2.47849 13.4374L3.49349 15.1954L5.53349 14.5454ZM9.90949 14.3164C7.70035 14.3164 5.90949 12.5255 5.90949 10.3164C5.90949 8.10727 7.70035 6.31641 9.90949 6.31641C12.1186 6.31641 13.9095 8.10727 13.9095 10.3164C13.9067 12.5244 12.1175 14.3137 9.90949 14.3164ZM9.90949 8.31641C8.81689 8.31751 7.92738 9.19525 7.91172 10.2877C7.89607 11.3802 8.76006 12.2831 9.85218 12.3155C10.9443 12.3479 11.8603 11.4979 11.9095 10.4064V10.8064V10.3164C11.9095 9.21184 11.0141 8.31641 9.90949 8.31641Z" fill="url(#paint0_linear)"/>
<defs>
<linearGradient id="paint0_linear" x1="12.4754" y1="-4.09114" x2="-20.7246" y2="23.2171" gradientUnits="userSpaceOnUse">
<stop stop-color="#5E5CE6"/>
<stop offset="0.802083" stop-color="#BA5CE6"/>
</linearGradient>
</defs>
</svg>
