<svg width="13" height="17" viewBox="0 0 13 17" fill="none" xmlns="http://www.w3.org/2000/svg">
<path d="M3.7753 12.2113C3.50373 11.9398 3.6453 12.0163 2.9903 11.841C2.69311 11.7613 2.43186 11.6082 2.19561 11.4248L0.777796 14.901C0.640609 15.2376 0.896859 15.6032 1.25998 15.5895L2.90655 15.5267L4.03905 16.7229C4.28905 16.9867 4.7278 16.9045 4.86498 16.5679L6.49155 12.5798C6.1528 12.7685 5.77686 12.8792 5.38811 12.8792C4.77873 12.8792 4.20623 12.642 3.7753 12.2113ZM12.7028 14.901L11.285 11.4248C11.0487 11.6085 10.7875 11.7613 10.4903 11.841C9.83186 12.0173 9.97623 11.9404 9.7053 12.2113C9.27436 12.642 8.70155 12.8792 8.09217 12.8792C7.70342 12.8792 7.32748 12.7682 6.98873 12.5798L8.6153 16.5679C8.75248 16.9045 9.19155 16.9867 9.44123 16.7229L10.574 15.5267L12.2206 15.5895C12.5837 15.6032 12.84 15.2373 12.7028 14.901ZM8.95905 11.5042C9.43655 11.0182 9.49123 11.0601 10.1712 10.8748C10.6053 10.7563 10.9447 10.411 11.0609 9.96916C11.2947 9.08166 11.234 9.18885 11.8719 8.53947C12.1897 8.21603 12.3137 7.74447 12.1975 7.3026C11.964 6.41572 11.9637 6.53947 12.1975 5.65166C12.3137 5.20978 12.1897 4.73822 11.8719 4.41478C11.234 3.76541 11.2947 3.87228 11.0609 2.9851C10.9447 2.54322 10.6053 2.19791 10.1712 2.07947C9.29998 1.84166 9.40498 1.90385 8.76655 1.25416C8.44873 0.930721 7.9853 0.804158 7.55123 0.922596C6.6803 1.1601 6.80186 1.16041 5.92936 0.922596C5.4953 0.804158 5.03186 0.930408 4.71405 1.25416C4.07623 1.90353 4.18123 1.84166 3.30967 2.07947C2.87561 2.19791 2.53623 2.54322 2.41998 2.9851C2.18655 3.87228 2.24686 3.76541 1.60905 4.41478C1.29123 4.73822 1.16686 5.20978 1.28342 5.65166C1.51686 6.53791 1.51717 6.41416 1.28342 7.30228C1.16717 7.74416 1.29123 8.21572 1.60905 8.53947C2.24686 9.18885 2.18623 9.08166 2.41998 9.96916C2.53623 10.411 2.87561 10.7563 3.30967 10.8748C4.00905 11.0654 4.06123 11.0354 4.52155 11.5042C4.93498 11.9251 5.57905 12.0004 6.07592 11.686C6.27461 11.5599 6.5051 11.4929 6.74045 11.4929C6.9758 11.4929 7.20629 11.5599 7.40498 11.686C7.90155 12.0004 8.54561 11.9251 8.95905 11.5042ZM3.79217 6.37791C3.79217 4.72072 5.11217 3.37728 6.7403 3.37728C8.36842 3.37728 9.68842 4.72072 9.68842 6.37791C9.68842 8.0351 8.36842 9.37853 6.7403 9.37853C5.11217 9.37853 3.79217 8.0351 3.79217 6.37791Z" fill="#818181"/>
</svg>
