<svg width="13" height="17" viewBox="0 0 13 17" fill="none" xmlns="http://www.w3.org/2000/svg">
<path d="M3.74893 12.2113C3.47737 11.9398 3.61893 12.0163 2.96393 11.841C2.66674 11.7613 2.40549 11.6082 2.16924 11.4248L0.751429 14.901C0.614241 15.2376 0.870491 15.6032 1.23362 15.5895L2.88018 15.5267L4.01268 16.7229C4.26268 16.9867 4.70143 16.9045 4.83862 16.5679L6.46518 12.5798C6.12643 12.7685 5.75049 12.8792 5.36174 12.8792C4.75237 12.8792 4.17987 12.642 3.74893 12.2113ZM12.6764 14.901L11.2586 11.4248C11.0224 11.6085 10.7611 11.7613 10.4639 11.841C9.80549 12.0173 9.94987 11.9404 9.67893 12.2113C9.24799 12.642 8.67518 12.8792 8.0658 12.8792C7.67705 12.8792 7.30112 12.7682 6.96237 12.5798L8.58893 16.5679C8.72612 16.9045 9.16518 16.9867 9.41487 16.7229L10.5477 15.5267L12.1942 15.5895C12.5574 15.6032 12.8136 15.2373 12.6764 14.901ZM8.93268 11.5042C9.41018 11.0182 9.46487 11.0601 10.1449 10.8748C10.5789 10.7563 10.9183 10.411 11.0346 9.96916C11.2683 9.08166 11.2077 9.18885 11.8455 8.53947C12.1633 8.21603 12.2874 7.74447 12.1711 7.3026C11.9377 6.41572 11.9374 6.53947 12.1711 5.65166C12.2874 5.20978 12.1633 4.73822 11.8455 4.41478C11.2077 3.76541 11.2683 3.87228 11.0346 2.9851C10.9183 2.54322 10.5789 2.19791 10.1449 2.07947C9.27362 1.84166 9.37862 1.90385 8.74018 1.25416C8.42237 0.930721 7.95893 0.804158 7.52487 0.922596C6.65393 1.1601 6.77549 1.16041 5.90299 0.922596C5.46893 0.804158 5.00549 0.930408 4.68768 1.25416C4.04987 1.90353 4.15487 1.84166 3.2833 2.07947C2.84924 2.19791 2.50987 2.54322 2.39362 2.9851C2.16018 3.87228 2.22049 3.76541 1.58268 4.41478C1.26487 4.73822 1.14049 5.20978 1.25705 5.65166C1.49049 6.53791 1.4908 6.41416 1.25705 7.30228C1.1408 7.74416 1.26487 8.21572 1.58268 8.53947C2.22049 9.18885 2.15987 9.08166 2.39362 9.96916C2.50987 10.411 2.84924 10.7563 3.2833 10.8748C3.98268 11.0654 4.03487 11.0354 4.49518 11.5042C4.90862 11.9251 5.55268 12.0004 6.04955 11.686C6.24825 11.5599 6.47873 11.4929 6.71409 11.4929C6.94944 11.4929 7.17992 11.5599 7.37862 11.686C7.87518 12.0004 8.51924 11.9251 8.93268 11.5042ZM3.7658 6.37791C3.7658 4.72072 5.0858 3.37728 6.71393 3.37728C8.34205 3.37728 9.66205 4.72072 9.66205 6.37791C9.66205 8.0351 8.34205 9.37853 6.71393 9.37853C5.0858 9.37853 3.7658 8.0351 3.7658 6.37791Z" fill="white"/>
</svg>
