<svg width="19" height="20" viewBox="0 0 19 20" fill="none" xmlns="http://www.w3.org/2000/svg">
<path d="M2.54004 19.3164H0.540039V18.3164C0.544448 14.4522 3.67587 11.3208 7.54004 11.3164H11.54C15.4042 11.3208 18.5356 14.4522 18.54 18.3164V19.3164H16.54V18.3164C16.5367 15.5564 14.3001 13.3197 11.54 13.3164H7.54004C4.77999 13.3197 2.54335 15.5564 2.54004 18.3164V19.3164ZM9.54004 10.3164C6.77861 10.3164 4.54004 8.07783 4.54004 5.31641C4.54004 2.55498 6.77861 0.316406 9.54004 0.316406C12.3015 0.316406 14.54 2.55498 14.54 5.31641C14.5367 8.07646 12.3001 10.3131 9.54004 10.3164ZM9.54004 2.31641C7.88318 2.31641 6.54004 3.65955 6.54004 5.31641C6.54004 6.97326 7.88318 8.31641 9.54004 8.31641C11.1969 8.31641 12.54 6.97326 12.54 5.31641C12.54 3.65955 11.1969 2.31641 9.54004 2.31641Z" fill="#6F6F74"/>
</svg>
