<svg width="19" height="20" viewBox="0 0 19 20" fill="none" xmlns="http://www.w3.org/2000/svg">
<path d="M2.21094 19.3164H0.210938V18.3164C0.215346 14.4522 3.34677 11.3208 7.21094 11.3164H11.2109C15.0751 11.3208 18.2065 14.4522 18.2109 18.3164V19.3164H16.2109V18.3164C16.2076 15.5564 13.971 13.3197 11.2109 13.3164H7.21094C4.45088 13.3197 2.21424 15.5564 2.21094 18.3164V19.3164ZM9.21094 10.3164C6.44951 10.3164 4.21094 8.07783 4.21094 5.31641C4.21094 2.55498 6.44951 0.316406 9.21094 0.316406C11.9724 0.316406 14.2109 2.55498 14.2109 5.31641C14.2076 8.07646 11.971 10.3131 9.21094 10.3164ZM9.21094 2.31641C7.55408 2.31641 6.21094 3.65955 6.21094 5.31641C6.21094 6.97326 7.55408 8.31641 9.21094 8.31641C10.8678 8.31641 12.2109 6.97326 12.2109 5.31641C12.2109 3.65955 10.8678 2.31641 9.21094 2.31641Z" fill="url(#paint0_linear)"/>
<defs>
<linearGradient id="paint0_linear" x1="11.5882" y1="-3.87076" x2="-19.7988" y2="21.339" gradientUnits="userSpaceOnUse">
<stop stop-color="#5E5CE6"/>
<stop offset="0.802083" stop-color="#BA5CE6"/>
</linearGradient>
</defs>
</svg>
